<mxfile host="app.diagrams.net" modified="2022-12-04T17:46:44.056Z" agent="5.0 (Windows NT 10.0; Win64; x64) AppleWebKit/537.36 (KHTML, like Gecko) Chrome/108.0.0.0 Safari/537.36" etag="rVBhzBcgWrJ9Cd699xuO" version="20.6.0" type="github">
  <diagram id="fqDff2OOT4ordfgiPYyi" name="Page-1">
    <mxGraphModel dx="1178" dy="449" grid="0" gridSize="9" guides="1" tooltips="1" connect="1" arrows="1" fold="1" page="1" pageScale="1" pageWidth="850" pageHeight="300" math="0" shadow="0">
      <root>
        <mxCell id="0" />
        <mxCell id="1" parent="0" />
        <mxCell id="gg7sQDAv7kerzeQKTBUp-1" value="" style="shape=image;verticalLabelPosition=bottom;labelBackgroundColor=default;verticalAlign=top;aspect=fixed;imageAspect=0;image=data:image/png,iVBORw0KGgoAAAANSUhEUgAAACIAAAAeCAYAAABJ/8wUAAAAAXNSR0IArs4c6QAAAeBJREFUWIXtVj1Lw1AUPRWXrmbSQZrJLFJNKJViRqEdOnZxdRKhu4PY/oXs/gIXIUgyV5SWtH4gSDu90sEOknZ0aYmL75nEfLxndRB6liTvndx7uO/ekwBLLLHEP0VG9AVN1T1ebu/+hjv+qqiIcqXOxXX7BAA8KiYvlwAAT+RuMSFUxPrWGgBgPJgk8iVFRgFVAGAVTKrQCq+QRVGQq4nHyiXEfyTjwSS1GmEBFOVKPVaMUEXosfwFhJpVpBJhOMQEyC8JsS2DmxuervD0/FiIbRm43JQAAFIxx9bdzhBSMQe3Mwzwa5YR6I+8XIodXYDT0DRV96iI2shN5fu5BbkKh5ip5ibUrLWRi26vBQCJVx6xwkI0VQcAvLxtCAUW5fNUhM19M7vNFq/3T9DMbgeuUTyKtG9U4rlRI3P7BA4xAwnO35+/8cP7/maVFBm2ZWA2nWeimjZWiN9N3T5hgSj8SSgcYkbuS4rM7m3LiGxcrvF1iImyUmfeYFtGIClNHCWO8tO+2okVidvr9lqYDk4DaweHt4mJ/IiqCLePXB2fsefHh9dI3s5ucFIor9G+wGw6Z7mieoTbWf1BY9H+um3sHQX4Sa4KCPwqaqru0R7gcUpRPndFPgOJ/q9y85cI4wPGQdixrpv24gAAAABJRU5ErkJggg==;" parent="1" vertex="1">
          <mxGeometry width="34" height="30" as="geometry" />
        </mxCell>
        <mxCell id="gg7sQDAv7kerzeQKTBUp-2" value="" style="shape=image;verticalLabelPosition=bottom;labelBackgroundColor=default;verticalAlign=top;aspect=fixed;imageAspect=0;image=data:image/png,iVBORw0KGgoAAAANSUhEUgAAACIAAAAeCAYAAABJ/8wUAAAAAXNSR0IArs4c6QAAAeNJREFUWIXtVj9PwkAcfRgXVjvpYOgkC1EhBGNkNIGBsYurkzFhdzDCV+juJ3AxIabMGAkEUImJgekIgwymMLpA6sKV3nFt7yRufUvbu3e/e/39uwMiRIighpjqgkw678hye6/P0va3VUUUimUprj0gAOBQMYf6KQCgT5qbCaEidg92AACT4TSQryV1ZFECANaDRBwFJY9sgqxeoq+OKGRbMka8IZkMp6HeEAnokBoAoFAsC/NMSggFDct/QCk0Kp4QoUNqANlQSN0ypTf0q6z5bOFbztJCHvY1AICWS7hjdnsELZeA3R4xXMMy18TMZ4tYnzTdMuYR2nAy6bxDRRhjW1qwMbaZRA1rbtLJaoxtdHsNAAh8yoj9s5DP7z0lo6p8ICRHvPVejafc8aeza1TjKeYp4gGr/kFt0Vzh4Rs32sTsAUGH1JgN7n4+1vj8PM0PLakzvLplCsVIV413c0+7Xs0v/9w7z4sIQqCQumW6RsNO3eUBx4B6k64N6kW+QjzltnYuiAyKvETHKT+ooUldXPhDqttrYDa8YTjnFy+BNngRfI5IC3m8unW/39++hLyjY7ZsKa/SuvetFgrpZPUa9UVr9Vo5uWT4QSIAhTtrJp13VFq2Kl/aI0tDqhdnaX4EHr9T5+gqFcp74gAAAABJRU5ErkJggg==;" parent="1" vertex="1">
          <mxGeometry x="34" width="34" height="30" as="geometry" />
        </mxCell>
        <mxCell id="gg7sQDAv7kerzeQKTBUp-3" value="" style="shape=image;verticalLabelPosition=bottom;labelBackgroundColor=default;verticalAlign=top;aspect=fixed;imageAspect=0;image=data:image/png,iVBORw0KGgoAAAANSUhEUgAAACIAAAAeCAYAAABJ/8wUAAAAAXNSR0IArs4c6QAAAgtJREFUWIXtlj9PwkAYxh+MC6uddDB0ksWgEIIhMprAQOLC4upkTNgdjBC/AYsTn8DFhBiYIRIIf5SYGJiOMMhgCqMLpC5cuZbrcSc4mPAspb2nd7++73svB2y00T+RR/WFUDBmynpb7Yr0/NuqEPFEWsprdAkAmBQmoEcBAB1SXQ2EQuwe7AAAhr2R0K/5dYSRBAB7BAk/C0oRWUVhPUl/mryUbclMwqZk2BstjQYPoEEKAIB4Is2tMykQKpqWv5BSalQiwVODFACyIkipmJNe0G1nTcZT1+0sDfK4rwEAtIjPembU+9AiPhj1vs2bKuYWYCbjqadDqtY2dmppwwkFYyaFSA0MaeDUwLAV6rLmJl2sqYGBZqsMAMKrDOyvQT6+9pQmFfndUiOsEXa/Z72H1vPn02tkvYe2K88HzPsHO1cAUY+z1QvzFgrGzLCeRIMUbAvcfb8veJ3jtD40v27zlYo5q3BZSe8adnGmXc/HZ1/OjjshRBKCzCrdBNx7g7U4FuGMLkGDFKx3aTR470udF5x//7zmxosSFa0TFkKpRlgQ9r7ZKmPcu7F5zi5ehHNQCLfziDTI09Wtdf/2+sn1HR3bty31ZWp5boGyUj6PnD/cuw/W5j9ZcMA9Esog1tedXCJTywtbdigYM9loyEgKpNWueDKAKSpINz/tQ2sBoZPDef5co38jp34A8tTv1GJ5fBkAAAAASUVORK5CYII=;" parent="1" vertex="1">
          <mxGeometry x="68" width="34" height="30" as="geometry" />
        </mxCell>
        <mxCell id="gg7sQDAv7kerzeQKTBUp-4" value="" style="shape=image;verticalLabelPosition=bottom;labelBackgroundColor=default;verticalAlign=top;aspect=fixed;imageAspect=0;image=data:image/png,iVBORw0KGgoAAAANSUhEUgAAACIAAAAeCAYAAABJ/8wUAAAAAXNSR0IArs4c6QAAAdhJREFUWIXtVj1PAkEUHIwNrVdpYbhKGqJCCMZIaQIFJY2tlTGhtzDAX6D3F9iYEAM1RgIBVEJioFpCIYU5KGkgZ8Mu7Ll391ZixzS3bIZ3c+9jdoEttthCDwHdP8SiSZvK7by9kOPv6opIpXMkrtVnAGBzMcfmOQCgy+qbCeEi9o/2AADjwcSTb4RNxJEBADmDTF0FrYxsgriZ4UtbVbIdSpD1kowHE99sqAS0WBkAkErnlH1GEsLBy/If0CqNTiZUaLEywDYUUq2UyC90m6z5dOE6zmQhj4cGAMBIhMSe1RzCSIRgNYcSN1sp/RIzny4CXVYXY+yEr+HEokmbi8iOLLLg7MiSGtXP3MjNmh1ZaHdqAOD5pIj9s5DP7wOtoLp8shAAKAYjYv18cYtiMCI9VTxg5R9+Z5Rn3WLRpB03M2ixsvSC/KznKTQ/64n+MMKm2K9WSqJpyUK4m1p9Jr6KY82uBdY5KhF+Ysjj63fqLg84CfwjKCe2pxA3E1Ptq7LE9ylmSLq4OBut3alhOriTOJdXr54xnK7qLA1ZyNPNvfj98f6l5J2cymPLeYXGg68Qco+sB3VFY7UsnF1LfLebGQf5TslHGaBZti6fnJFlIN2LM5m/hRM/CiPiPvxoCVkAAAAASUVORK5CYII=;" parent="1" vertex="1">
          <mxGeometry x="102" width="34" height="30" as="geometry" />
        </mxCell>
        <mxCell id="gg7sQDAv7kerzeQKTBUp-5" value="" style="shape=image;verticalLabelPosition=bottom;labelBackgroundColor=default;verticalAlign=top;aspect=fixed;imageAspect=0;image=data:image/png,iVBORw0KGgoAAAANSUhEUgAAACIAAAAeCAYAAABJ/8wUAAAAAXNSR0IArs4c6QAAAeBJREFUWIXtVj1Lw1AUPRWXrmbSQZrJLFJNKJViRqEdOnZxdRKhu4PY/oXs/gIXIUgyV5SWtH4gSDu90sEOknZ0aYmL75nEfLxndRB6liTvndx7uO/ekwBLLLHEP0VG9AVN1T1ebu/+hjv+qqiIcqXOxXX7BAA8KiYvlwAAT+RuMSFUxPrWGgBgPJgk8iVFRgFVAGAVTKrQCq+QRVGQq4nHyiXEfyTjwSS1GmEBFOVKPVaMUEXosfwFhJpVpBJhOMQEyC8JsS2DmxuervD0/FiIbRm43JQAAFIxx9bdzhBSMQe3Mwzwa5YR6I+8XIodXYDT0DRV96iI2shN5fu5BbkKh5ip5ibUrLWRi26vBQCJVx6xwkI0VQcAvLxtCAUW5fNUhM19M7vNFq/3T9DMbgeuUTyKtG9U4rlRI3P7BA4xAwnO35+/8cP7/maVFBm2ZWA2nWeimjZWiN9N3T5hgSj8SSgcYkbuS4rM7m3LiGxcrvF1iImyUmfeYFtGIClNHCWO8tO+2okVidvr9lqYDk4DaweHt4mJ/IiqCLePXB2fsefHh9dI3s5ucFIor9G+wGw6Z7mieoTbWf1BY9H+um3sHQX4Sa4KCPwqaqru0R7gcUpRPndFPgOJ/q9y85cI4wPGQdixrpv24gAAAABJRU5ErkJggg==;" parent="1" vertex="1">
          <mxGeometry x="136" width="34" height="30" as="geometry" />
        </mxCell>
        <mxCell id="gg7sQDAv7kerzeQKTBUp-6" value="" style="shape=image;verticalLabelPosition=bottom;labelBackgroundColor=default;verticalAlign=top;aspect=fixed;imageAspect=0;image=data:image/png,iVBORw0KGgoAAAANSUhEUgAAACIAAAAeCAYAAABJ/8wUAAAAAXNSR0IArs4c6QAAAdRJREFUWIXtVj1Lw1AUPRUXVzPpIM1kF0EbSx2sm1CRjl1cnUTo7iCtfyHg6C9wEYIkc/2gJa0fCGKnlA52kLSjS0sc7IsvMc17F+uWsyQvObnvvPPuvS9AggQJaEhRP9CyBU+W2364kY4/TxVR3KtIcd03BwA8WTHSQpiIpdVFAEC/M4jlKxkVOZQAwAPE7szJCvkrRFsqJYTfkn5nIHSDR04t+dc4MSRH2Lb8B0hCKE6EYTtG7HtS1QCAZerSXLYtgDhZSUIsU8fligIAUPJp/7nb7ELJp+E2uwF+2TECYuIgVeMsyZiIcs8VfhPmzrx8yz0XrXYdAGKvMmJJQrRswb9//VgmBafwY+0K1/3ZwhoAYP/2HJvajj/mUf18Qatdx/X2sT/mMRqOU8/OvbyQqHPFMvXA5OFJeLHsfU4twZ4krZJRYZl6ZL6Qqqa4V0GVK9+oiqhy/YLvqiLEOsImB77dEJ28kxP3F5gjrKmRHOHIHhBcVVRTE63adgyMhuOpCyf1EYZWu45h5yTA2T24i40xLUnJQq6OTv3x0+N7JG99I1iujFdrXMyuxfNBp6Lxc1vbOhTzOUj/U2rZgsfywHYM4QqpfGlHJoGoP87S/ARhfAFqY9b/dAuzIwAAAABJRU5ErkJggg==;" parent="1" vertex="1">
          <mxGeometry x="170" width="34" height="30" as="geometry" />
        </mxCell>
        <mxCell id="gg7sQDAv7kerzeQKTBUp-7" value="" style="shape=image;verticalLabelPosition=bottom;labelBackgroundColor=default;verticalAlign=top;aspect=fixed;imageAspect=0;image=data:image/png,iVBORw0KGgoAAAANSUhEUgAAACIAAAAeCAYAAABJ/8wUAAAAAXNSR0IArs4c6QAAAepJREFUWIXtVb9LAlEc/1y0tOZUQ3hTLVFpYkS2BUoILS6tTRG4N4RG/8FBNPkXtAQSOmuFomdFEDmdOOQQp2OLci2+17vLez9Ig8DPcvfufe69z/u89/k+YIop/gk01R/CoZgjyzUbZenxZ1VFxBNpKa79ZgGAIytGWggRsbA8DwDoNLtcfmBFRwRJAHAAsTszskJ+C9GWSglht6TT7ArdYBHRk/TJE6PkCNmWSUBJiIoTXtSsPLdfKTUAUCwY0lyyLYD4sCoJKRYMXC8FAACBaJB+t6stBKJB2NWWi5+y8lTMmr6NZ+vBd2ypjJNDRkSk2rbwHy937PFNtW3UzRIAcJ8yYpWEhEMx+v76sag0uArf165RmT+fWwUA7N9dYjO8S9ssMp8vqJsl3O6c0DYLvy3iCvHeK8WC4ZrcOwkrlvRH9CRqw0Nbs/K+QpRSE0+kkWHiy8aTTs7UC7aqisA9yawrxYIB0c07vHF/gBSzfm+g+UWY68jQRgdwr2pUUROtWhRfpTpCUDdL6DVPXZy9w/u/EXJzfEbbT4/vI3nrG+64El62kkO/N9AA+FZX5bvm4OrCv7Py/coK5wlQFkJXt3WEbCXHtTocijmsGzKQEmI2yloWcGRi6OWT+jEWIWRwDBM0Cf4UXnwBaVTeHCdBZHkAAAAASUVORK5CYII=;" parent="1" vertex="1">
          <mxGeometry x="204" width="34" height="30" as="geometry" />
        </mxCell>
        <mxCell id="gg7sQDAv7kerzeQKTBUp-8" value="" style="shape=image;verticalLabelPosition=bottom;labelBackgroundColor=default;verticalAlign=top;aspect=fixed;imageAspect=0;image=data:image/png,iVBORw0KGgoAAAANSUhEUgAAACIAAAAeCAYAAABJ/8wUAAAAAXNSR0IArs4c6QAAAcVJREFUWIXtVj1PwkAYfjAurHbSwdBJFhKFEBxkNIGBkcXVyZiwOxjhL3T3F7iYNKadMRpIwY+YGJiOMMhgCqMLpC5cbWt7917EjWe5a++5956+X1dgjTXWUENKdUMhX/ao3P7TPdn+pqqISrVB4roDBgAeVQxZCBexvbcFAJgMp0K+ltVRRA0APEDunQ2qkL9CFlKSkGBIJsOp1BtBFPWaP4rEKHmEh+U/oCRExRNROMwUritVDQDYlkHm8rAA8mRVEmJbBm52NQCAVsr4793uCFopA7c7CvHrzAyJEYFU4zzJuIj62JXuiXJXXr71sYtevw0AwpEiVklIIV/25++fO0rGVfgUj4Rqv5XO+fO7o3O00rnQGMcD5A1NGLfo3WJbRuiAq6+3X3ui60W9BmeZtA4zMZ8tUq/skS4k6YILlm9cRQT7RXRdy+qwLSM2ccnla1sGKtUGRLevO2CJ4mRlLBSS9PVxTU12kMNMgCWvK/URjl6/jdnwIsQ5PnkQ2pjPFv5ZSjkSFXJ7duk/vzx/xPL2D8LlynnNzvXqWnzQaCI6P9Pm4amcHwD5n7KQL3s8DxxmSr9QlU/2yNKQ6o8zmb9GFN/S5c2uf+mlEAAAAABJRU5ErkJggg==;" parent="1" vertex="1">
          <mxGeometry x="238" width="34" height="30" as="geometry" />
        </mxCell>
        <mxCell id="gg7sQDAv7kerzeQKTBUp-9" value="" style="shape=image;verticalLabelPosition=bottom;labelBackgroundColor=default;verticalAlign=top;aspect=fixed;imageAspect=0;image=data:image/png,iVBORw0KGgoAAAANSUhEUgAAACIAAAAeCAYAAABJ/8wUAAAAAXNSR0IArs4c6QAAAe1JREFUWIXtlr9LAmEYx79Gi2s31RA65RKWIobkGOgguLi0NoXg3hAq0j/g4tTQ3BJY6FwgipmKEDmdOOgQp6OLcg32nu/pe95zWlDgd7mXe5977sPz430fYKM/KpvVD7yeoEq1rb29kP1vW4UIhRMkW+VDBgCVwbidAQBAUy6tB8Igdg92AAD99mCpveRywocIAOgjKIuzYCki68jnjLClKkrZFsUJn5J+e2AaDRFAVc4DAELhhLDOSCBMLC2/IUupsRIJkapyHpDXBCkWsuQfGnXWeDgxbGcyyP2+BACQ/A7tnVLpQPI7oFQ6OttYIbsAMx5ObE25pLXxvEwPHK8nqDKIWFchA8e6iq5QzQ43crHGugpea88AsPRJgV0Z5P1zz5JTBsNaliJyjaTth9r66TSOtP1Q9+TF1we1yEmXktcTVHmQ5KhlCJoctRYKtVjImtYIOSL8z7njerbPpaEo6BozkUHMHH9fcCvDkNp3HkaUd1GUgOkt/GOpebi8BgBEcxkA0zYdtq90NmfnBh0iONLdzsDCXGLprmFAj/E7AC7dXurEhaNjfZs36r3pXvnW1DcZpFHvmTssz5YMegp5gRQ3h4imNBLITbGhrfnRz2jsA4BoLqMCxrWzEgh3QpKHYa44ycP2Rhv9C30BSsrKBSsCYZ0AAAAASUVORK5CYII=;" parent="1" vertex="1">
          <mxGeometry y="30" width="34" height="30" as="geometry" />
        </mxCell>
        <mxCell id="gg7sQDAv7kerzeQKTBUp-10" value="" style="shape=image;verticalLabelPosition=bottom;labelBackgroundColor=default;verticalAlign=top;aspect=fixed;imageAspect=0;image=data:image/png,iVBORw0KGgoAAAANSUhEUgAAACIAAAAeCAYAAABJ/8wUAAAAAXNSR0IArs4c6QAAAexJREFUWIXtlj1PAkEQht8zNrRSSWG4ShuCQgiGSGkCBYnNNbZWxITegggx/gEaK36BDQkxUENiIHyIMTFSQSikMAelDeRsXNjj9o7Zw8KCt7ljd272YXZnZoGttnKWIvtBOBQ3qLadbp3sf1cWIpHMkGz1jwEAGAwmqMYAAK+DZ6E9mZhB7B/uAQDG/QkJpjUoW8ZFkZKKyCaKqCkAgPdIBbhIMe1QnPBbMu5PSNFYBRBFRhqEiW3LJqpWCsJxqa2RiYRIrUEZs+lceC7JIHb/RCS7zLKDkAJ5PPACALxR/2JMbw7hjfqhN4cmW61SsMDMpnPFLnUBQvqGQ3GDQWgjnQysjXTTQV1X3MiHVRvpaHdqAOD4pMC6Bnn/8kk5lbUngwBA3hNYvD+dXSPvCZieIjsZkUp8OBQ3+AVuv98cQfn5iJoinRFy1qw6t8xzlZMtnkhmWPMzKajGLM2PDLKu60awhGMQMnLV9ETFjU9VWQgpEH7xdqeGaf/GNH9+aW1q/DWA3UfsRD6spXR28bv38im0Oz7x4eLhzjSWO71CrlG0lHfXZ8TkvFEUTzSWr6V01gTsVN6lQXjHTr0jHIobzNYW2i3IfbUHYNk3nPa8060rOcCIqKlFKv8ZCOdMAdaH+reAkW/8W/1b/QBMDuUm8a4xowAAAABJRU5ErkJggg==;" parent="1" vertex="1">
          <mxGeometry x="34" y="30" width="34" height="30" as="geometry" />
        </mxCell>
        <mxCell id="gg7sQDAv7kerzeQKTBUp-11" value="" style="shape=image;verticalLabelPosition=bottom;labelBackgroundColor=default;verticalAlign=top;aspect=fixed;imageAspect=0;image=data:image/png,iVBORw0KGgoAAAANSUhEUgAAACIAAAAeCAYAAABJ/8wUAAAAAXNSR0IArs4c6QAAAdhJREFUWIXtlr1PwkAYxh+Mi6udZDB00sWgEAIhMppojGMXVyZj4u5gxH+BxNG/wMWEGJjxIxLAj5gQmUo6yEAKowukLr5Nrz3a94Jjn4VwfXjvx3O99w6IFSuWmhKqP8hmSg7X2319YNdfVoXYPzhjee0vEwAcgknrRQDAh/ks9bOJCWJtYxUAMOyPWTBtsxYYlyWllMgiyulHAABtUwc8SZGWOEW8SzLsj1lp+AFkySiDkGhZFlGjXpWOKy2NShIytc0appOZ9L1USmRREYRs57ATmRepTLItPp3MEgSQ1osBGDbI7boGANDyKXfMbg2g5VOwWwPBa9SrARjvxLJEIvtINlNyCMKwbDawYdnCjonqsqx3pDdKwrBsdLpNAAj9NCwbvVGSU1YQK5GrlS0AwOHjNe53T+d6vc8vfz6R04+E/hGWCgsEAAiGJvHL/5yWBXC7KRr1qvDSskGymZLj/1cAhElIXo8MgjQPhr1rok7dHIJwNDHnxI4EkZ0Rsp4iS4nGOT2IdQ3wX4Y63SYm/XPBs3f8FFrD39r9S8MGuTu5cL+/v31Lfds74rYlX+XlJrKPKF2MKoWyWzhKlUJZ8P0bCMFwuiXX55XSNeCvYOTlmeuLFaZfaynrP1cLn4gAAAAASUVORK5CYII=;" parent="1" vertex="1">
          <mxGeometry x="68" y="30" width="34" height="30" as="geometry" />
        </mxCell>
        <mxCell id="gg7sQDAv7kerzeQKTBUp-12" value="" style="shape=image;verticalLabelPosition=bottom;labelBackgroundColor=default;verticalAlign=top;aspect=fixed;imageAspect=0;image=data:image/png,iVBORw0KGgoAAAANSUhEUgAAACIAAAAeCAYAAABJ/8wUAAAAAXNSR0IArs4c6QAAAeNJREFUWIXtlj9PwkAYxh+MC6uddDAw6ULUNgRj7GgCAyOLq5MxYXcwwldg9xO4mDQGZ4hEUooSEwPTEQYZTGF0gdSFq9dy5e6CJprwLG25t+/9eP/1gJX+qGKqLxi66cnaOu26tP91VYhsrihl63YJAHgUZi95BADokMZyIBRic2cDADDsjRbaa7tJpJEHgGAECT8LShFZRulknt56vJStyThhUzLsjYTR4AHYxAIAZHNFbp1JgVDRtPyGlFKjEgmebGIBZEmQh2pFesOozpqMp5HtLA1yu60BALRMwv/NbfahZRJwm/2AbaFamYOZjKexDmn4bRyWcOAYuulRiMLAlQYuDNxAoYqGm3SxFgYuWk4NABZeZWCVQQzdBAC8fWwpOVW1ByJqhNfn5XjKv78/vkA5ngpceXZRPnlp4uaNHWBul8AmVmCD68/XuXfC68wkhU0sYb1Idw27ObuJvz6bnLx1nr0UyIzYYx2IvrqzDxxXNCI2sSJnSWREKAxvjTfcRP9a1MJSB5dw8bacGsa9y4DNyenjQh+iOSINcnd+5T+/PL9z7fYPgm1L7UpPNz8DwsKwznkqHZ4FnyUglEAoDIDIVjR00wufP2TPrUrHAMZp5AHa/m7jmNOuq7hfaaX/oS8ZUOI6ZUG/DAAAAABJRU5ErkJggg==;" parent="1" vertex="1">
          <mxGeometry x="102" y="30" width="34" height="30" as="geometry" />
        </mxCell>
        <mxCell id="gg7sQDAv7kerzeQKTBUp-13" value="" style="shape=image;verticalLabelPosition=bottom;labelBackgroundColor=default;verticalAlign=top;aspect=fixed;imageAspect=0;image=data:image/png,iVBORw0KGgoAAAANSUhEUgAAACIAAAAeCAYAAABJ/8wUAAAAAXNSR0IArs4c6QAAAedJREFUWIXtlzFPwkAUx/8YF1Y76WDopItR2xCMkdFEB0YWVydi4u5AgK/AzidwIWkMzBANBIoaEiNTCYMMpjCyQOoA17Rwvb6DxYH/cnB9vPv13bt3D2CrrcSKyP5A15IO1dbs1Mn+d2Uhbm4fSbb2twUADoM5VS8BAJ/WG9eeTMwg9o/2AADD3ogE07KMlXlepKQisoniagoAoByrgCdSTDsUJ94tGfZGpGgsA/AiIw3CxLZlE1UrRe681NbIRIKnlmVgOp5x85IMEvQmPAWdrOl4Fgk6NWSQ50MFAKAkYu6c3exDScRgN/s+23SluALDIIKOcejx1bWkwyDSA5sMnB7YvkQNK27kZE0PbLTNGgAIRwrs2iBfvwdSTmXtySAAUIieuJ9frh5QiJ74Rp6dV2F3lHDfdC3pxNUUWpbhWyA36QpBc5Oumx/APEeYHwARs1Ong7BqyrsvvIt4FxM9X5R2VCvFze6asFs3jtXFZSQECSpivHleFJhalgFYYhBSG7CcaG2zhnHvyWdzffcq9BFWR8gg5UzW/f7x/sO1Ozv3H1tml2+UQkHW6kfyjRL/QWM+eKGpkurQypls6FvqWtLJX9y7NgCtd5VqnlldAcT3B9XOK6mtWTgkdfGeuiL9T2Grf6U/OCjmaLGzHVgAAAAASUVORK5CYII=;" parent="1" vertex="1">
          <mxGeometry x="136" y="30" width="34" height="30" as="geometry" />
        </mxCell>
        <mxCell id="gg7sQDAv7kerzeQKTBUp-14" value="" style="shape=image;verticalLabelPosition=bottom;labelBackgroundColor=default;verticalAlign=top;aspect=fixed;imageAspect=0;image=data:image/png,iVBORw0KGgoAAAANSUhEUgAAACIAAAAeCAYAAABJ/8wUAAAAAXNSR0IArs4c6QAAAdxJREFUWIXtlr1PwlAUxQ/GxdVOMhg66WJUSAMxMppoDGMXVyZj4u5grP8CiSN/gYsJITDjRyCAHzEhMpUwSJQURhdIXbwNLa/tfcGxZyG8Ht77cd679xWIFCmSnGKyP0glszbX236+Z8+/LAtxeHTO8lofJgDYBLOt7gEA3swnoZ9NTBBrG6sAgEF3xIJpmqW5cVFSUoksIk3NAQCUTRWYSYq0xJlkdksG3RErDS+AKBlpEBJtyyKqVgrCcamtkUlCpKZZwmQ8FZ5LqUQWFUGIKoediF+kIolKfDKexvxKVwrkdl0BACjphDNmNXpQ0glYjZ7Lq1cKczBBEACjj6SSWZsg9L7FBtb7lqtiwros64x0hnHofQutdg0AAj/1voXOMM6Z1iVWItcrWwCA44cblPfPfL2zz69+3qGpOVf/CEqFBQIABEOLeOV9TtsCON0U1UrB99AGgqSSWdv7rwC4FiHNekQQJD8YdtWE3boa5uFoYc6NHQoiuiNEPUWUEo17/dJbQ/K+DLXaNYy7Fy7Pwclj4Bxh5csGuTu9dL6/vnwKfTu77rIln1Ev/g8IwRiZPIx6keU3MnkHAghPROr2LX99O70hbGIDsDU1N9dLFgb5W1j2xZntj+TVL6Lz5Et+edQwAAAAAElFTkSuQmCC;" parent="1" vertex="1">
          <mxGeometry x="170" y="30" width="34" height="30" as="geometry" />
        </mxCell>
        <mxCell id="gg7sQDAv7kerzeQKTBUp-15" value="" style="shape=image;verticalLabelPosition=bottom;labelBackgroundColor=default;verticalAlign=top;aspect=fixed;imageAspect=0;image=data:image/png,iVBORw0KGgoAAAANSUhEUgAAACIAAAAeCAYAAABJ/8wUAAAAAXNSR0IArs4c6QAAAgZJREFUWIXtVjFLw1AQ/qIujppJBzGTXaSaWApC3IR2EFy6uDm6FFcHseI/6OLUX+AidKizYqnUWosgOqV0qIPEji4tcaiXJi/vJS/p2g8Cx3GX+/Ld3csDZpghHEqcYEM3nbgFWi8PUjUW4pA4Pi0BAL4+f6Ry7A8LABwik9Z2AQAdq56MiKGbTi5flCruhZrSkMEBALhKihSSVgSQV0KEjDYmxSMzF5VMaqxsLE9LAE2riox2wJ21SCKEadXwIpcvBshIteauVk5ULA6kiNysqa6tZtdd237qQs2uw37qBnIKtTKXTNOqIpcK+kN33NBNh0gUerYMZx/xQs/2zcdwMFIAYGFp3gH8GxSYEUM3HXrIV+jZeG7dAwCeW/c+m+cTke5YdXSsOoaDkUKkCNzW5PJF2B8WmlYV79+rAOTVIITlJT7QLhc3XXvH2AvYXh8bD4zbAozVFh1oXKehm463t+yLZXDx++bOh5rSXP9drYzhYKSwqgiHNckPzgseCS8ZVhlhayiQCNEqis4UKsyCZi3qXIlc39uTcwDA4fUVgMmmDD7PfLH7R4+hhViwikgTIby2+8L4re3VgI/iS41K6N1Eamte232UGpXowMbEZD8gCpG3J3aDWi8PSlrb5Z4FbB6RoQ+ZSpH/5EQb5G1LFGLdWeOCp6YoNtYNLS6mUXOGGVj8AaNu9le7uhWvAAAAAElFTkSuQmCC;" parent="1" vertex="1">
          <mxGeometry y="60" width="34" height="30" as="geometry" />
        </mxCell>
        <mxCell id="gg7sQDAv7kerzeQKTBUp-16" value="" style="shape=image;verticalLabelPosition=bottom;labelBackgroundColor=default;verticalAlign=top;aspect=fixed;imageAspect=0;image=data:image/png,iVBORw0KGgoAAAANSUhEUgAAACIAAAAeCAYAAABJ/8wUAAAAAXNSR0IArs4c6QAAAiRJREFUWIXtl71v00Achh9Dl4yQCQaEJ7JEBZsIVMlsSMkQiSVLN0aEFLEyoCbiP8jCxMDMgmSkdKZSVOSmbYSE2skoQxmQyciSyAzpWT7HH3eWu/VdrNjnu8fv7+MucC1ZRpmXbMsJi8ZMjw+05t4qA/HyzQCA3+d/U8cEZz5AKGC2zR0AZv6kGhDbcsJ2p184rt4wadEFiJwrckjbEch2Ikstcw2VB3NDdTLhxp0Ht3UB8HyXltnNzS1lECFdN+Jqd/qZMFqh2R+PlBYrIy2Qz/fqANSf3I/uBd9/SWN641EqjOe7tBvZkEq1bltOKCB686AQtDcPpPxYLlYGwNatmyGkV5BWjvTmAUfTbwCp1yzImT9h5k9YLlaGgEqqVPmWVamGptLGq1RuaNqdfhTrn3/uSs8e28+kq1ByXCUgSQ1rzY2F42DDWlO65/kuoOauUo60zC57vsuw1txYLKm9fz8iFxNlHC4XKyMrT3LL17acMF6GqtCw3viS2h+PMje/XEcuX4psFYtchQpDI77Atpww7SuFLs8g0m/Pd5VbvvIpSiScmDi+7+Q5lQxpqdDEIb68egfAiw/vgXUnXZy/BeD57mb+xOFUjo3anVUAfX39CWgAMHja4OEjuX+cnlwA4MkRqwbk9OSCweHH9IeHMqiutHIkXsrT4wNj29zZ2D/iYRTglYYmWcp5EmHJdC9Fpf7XFCnNvaJ3ruQYoOPetbL0Hz867IZuyXmeAAAAAElFTkSuQmCC;" parent="1" vertex="1">
          <mxGeometry x="38" y="60" width="34" height="30" as="geometry" />
        </mxCell>
        <mxCell id="gg7sQDAv7kerzeQKTBUp-17" value="" style="shape=image;verticalLabelPosition=bottom;labelBackgroundColor=default;verticalAlign=top;aspect=fixed;imageAspect=0;image=data:image/png,iVBORw0KGgoAAAANSUhEUgAAACIAAAAeCAYAAABJ/8wUAAAAAXNSR0IArs4c6QAAAglJREFUWIXtlrFPwkAUxr+qi6N2ksHYSRaithISk7qZwEDiwuLm6EJcHYwY/wMWJ/4CFxMGnDUSCCIQE6NTCYMOpjK6QOqA11zxen2HDgx8yyXX17tfv/fu9YCZplSa6guWaXvU2ObjHXn9BVWIw+MCAOD99VMa6744AOAxmA1jBwDQcap/A7FM20tn8tRw6HEDSWQBwHdQ5pCSI0C0E2FKGiOoMJg5yiLMjZX15UkB0HDKSBrZ0BojgTBN6gavdCYvhCGn5qZSVNpMVWSQq1UdAKCn1vw5t96FnlqDW+8GYnOVohCm4ZSRjoshI8+5Zdoeg8j1XDJwrucG6mPQH2oAsLA07wG/TxC5RnI9Fw/NWwCQjmGwHaeKjlPFoD/UGBQvYWpUuqeqwhpaqCPpTN639vkjFni2be0KR6bxeIrIqTlfTPzacFzb1i7OFxOBuYZTBhDtcmixWqbt8cU2voFMZ19Pvpt63PDnbypFDPpDTZQe6amZtFZEEDyMqM1L+wh7gXdHRe6LM+odhAZHui8wZ9iCoi4rA2V1wiRyhNTQro9OAQD7lxcARv2i/3oSiNs7uJeuE3VJUgJharfehLGbWzFhXKFWigQh/2varTcUaiV5UG00jINTRK4R/ig3H++0DWMntEvyLrIP+BdHfhZROsp8WihSvsVTJXJRFq98Z6VqEhdnmkp9AyzT7hO3WeZZAAAAAElFTkSuQmCC;" parent="1" vertex="1">
          <mxGeometry x="72" y="60" width="34" height="30" as="geometry" />
        </mxCell>
        <mxCell id="gg7sQDAv7kerzeQKTBUp-18" value="" style="shape=image;verticalLabelPosition=bottom;labelBackgroundColor=default;verticalAlign=top;aspect=fixed;imageAspect=0;image=data:image/png,iVBORw0KGgoAAAANSUhEUgAAACIAAAAeCAYAAABJ/8wUAAAAAXNSR0IArs4c6QAAAflJREFUWIXtVr9LQlEU/owW196UQ/imXMRSxJAcgxqElre0NonQ3iAp0T/g0tTQ3CJY6Kwkir8JJKcnDjbIy7FFeQ1xH+/HfXquToHfcn3vnHvu53fPjwdsscVyeEQ3RMIJnerb7lTJ8XdFSZxf3JB8tU8VAHRGJiTHAQB9tcb1JzMWIWEm01SLXJtdLSFFAGD/cA8A8DX8FtoXlZMAACkgo1zKO+w7lCDrqGEn4KYMg7AiokrYUS7luUlMUoSBXcu6aKpF10oSIrKpGvPZwhOS40YFmUG+Gl6CuYGXT/PZwtNXa1wSQkReDiQAgBTzG++0xghSzA+tMbL4KqW8gwzrH2v3kUg4oTMSylgjE1bGmqViVnVZUo4Mpj4oYw2tdgUAlq7KWMNg6qOEFSeyCVj/WDWjluaIeXPOGzTev52mkfMGLSvPD3Akrs6S1g7Xe2PdlM0L8wF3Px8Of7s9KichBWSHX7mUB48MuWrMh7MktNhNLZzZ2Z+gjIelipifzcF4PYVHDuDPGF4FkT4D7KRa7Qpmw1uLz9nVO3dv9uQa2frTyvIlX00hlTF+v6afAQRsBwZwdGwt2153Qg0vPn0vH+/djfW/pZDKGCQoaggT6XUnhtRuZRgJJ/SHcg8AraMKE7EHdxtezAcQ+3heJ1k97U6VGn+L/49fxXjyMlGupuMAAAAASUVORK5CYII=;" parent="1" vertex="1">
          <mxGeometry y="90" width="34" height="30" as="geometry" />
        </mxCell>
        <mxCell id="gg7sQDAv7kerzeQKTBUp-19" value="" style="shape=image;verticalLabelPosition=bottom;labelBackgroundColor=default;verticalAlign=top;aspect=fixed;imageAspect=0;image=data:image/png,iVBORw0KGgoAAAANSUhEUgAAACIAAAAeCAYAAABJ/8wUAAAAAXNSR0IArs4c6QAAAeZJREFUWIXtVjFPwkAU/jAurHaSwdBJFqKWEIyB0QQGRhZXJ0PC7mCkf4GdX+BiQgjMGAmkoBITAtMRBh1IZXSB1EGuXmmvvVbGfkvb1/fuvr7vvdcDQoQIEeJ/iPhxTik5w+8Gw5cnoT32/ZDIFyq+SOgTAgAGJXMiXwAARqQbjAglcXh8AAD4nH4JEZESMtIoAoCZSV6G9oRW3BHScpErr6d+QSRhsZEHGmmYZDTSsGVGOCNUll0gX6jYMiNMRLQugkKoWNutmu+FeXJqpAGQgEQejiQAgJSJW+x6fwYpE4fen9liSq2ajcxquebWpGuxppScQUmU5roIZwB/xEtzHWm5CACWAnWaJ0I1UprrGAw7AIDBsGO5d7J5kR6Rrm2oeUozXsSgRmPmczNbBgCo0SSa2bJ5ZaFGkxgvAOCXEG3dlJIzeAONKw3bXmo0adrvv9+5pLf9qCxSQjbt7VbNcbo6EqFDTJ8Q82so6OJOYH2dSLBkVst1hJVHqGvY6ndrZSeS9GO8pjM3I7wAWpTL6a3t3eXVs+tmLLblEfrXPN7cWWxvrx9c/9OzmOWZ+lZ7dUv7+u6a7Y2rvbq7c2/jd37NjXE6jwidnlJKzmD110jDVmwiMW6nNaGMbBbwdUwMEhOCxQ/MpuKsDoSVYQAAAABJRU5ErkJggg==;" parent="1" vertex="1">
          <mxGeometry y="120" width="34" height="30" as="geometry" />
        </mxCell>
        <mxCell id="gg7sQDAv7kerzeQKTBUp-20" value="" style="shape=image;verticalLabelPosition=bottom;labelBackgroundColor=default;verticalAlign=top;aspect=fixed;imageAspect=0;image=data:image/png,iVBORw0KGgoAAAANSUhEUgAAACIAAAAeCAYAAABJ/8wUAAAAAXNSR0IArs4c6QAAAepJREFUWIXtlj1PwkAYx/8YF1Y76WDoJAtR2xCMsaMJDiQuXVydjAm7gxHjN2Bx4hO4mBADM0aC4UWJiZHpCIMMpjC6aM7pzhav7VPAjf/S6/Xp3e+etxZYaKGFoikW9QXTsDjVtt25J6+/HBUie5An2TpvDAC4gNnUdwEAXVafDURArG6sAACGvVGgvZbUkUYOALweZOooRPLILErrOTHkqpAtURZxh2TYG4V6QwXQZGUAQPYgr8wzEoiQCMt/KFJoonhCpSYrA2xGkGqlSN7Qr7K+xt++5UwGuVnXAABaJiHnnMc+tEwCzmPfY2tXin9gvsbfsS6ryzKeVGjDMQ2LCwh74JCB7YHjSdSw5kZOVnvgoNWuAUDglQI7Ncjrx1qkRaPak0EA4DKekuO7vVNcxlOeq8oO+O0fYd+owLiZhsXTeg5NVvZscPH5Egh68fki80NL6nK+WinKpCWDiG7qvDF5KiFXu5Zy26ggwmDI5esuR1VPUcGJQ1C+2IEe8XvWatcw7p155vaPHkI3E1J5hPTjYhoWvz05l/fPT+9Ku61tb7UIu0Kj9KerTh0aocPrK/+Hjd+hG1y18aTIIPJ0O8coNEqBndI0LO72BkUkkHbnPlYAuCohw+xF+c8FRCyOyd++OdovNKkfmTbkoajbAmoAAAAASUVORK5CYII=;" parent="1" vertex="1">
          <mxGeometry x="34" y="120" width="34" height="30" as="geometry" />
        </mxCell>
        <mxCell id="gg7sQDAv7kerzeQKTBUp-21" value="" style="shape=image;verticalLabelPosition=bottom;labelBackgroundColor=default;verticalAlign=top;aspect=fixed;imageAspect=0;image=data:image/png,iVBORw0KGgoAAAANSUhEUgAAACIAAAAeCAYAAABJ/8wUAAAAAXNSR0IArs4c6QAAAfFJREFUWIXtlj9PwkAYxh+MC6uddCB0koWoEIIxdjSBoYlLF1cnY8LuYID4DVic+AQsJsTADNFA+KPGxMhUwiCDKYwukDrA1WttjzuLW5+lvd7Tu1/fe9+7AoECBRJTSPSFZEIxeb29fpN7/E1RiEw2x+U13nUAMAnMnnwEAHjRH/2BEIjt3S0AwHgwYfqlmIwUVACwIsiK0AYviF+lZJW5rFwg9JKMB5OV0XACEGWyOU8YoYiQZfkPCSWrSCSc6uhVQF8TiB+tKmUhkHqtxO3lLXNhkHqthEpEAgBI6aj13GgPIaWjMNpDm1+rlWyJujYQAqGNDGBk2Dsd7UpEQiUiQdOr3DBCVaONDHR7DQBgXjUn6DpASN2/fe4IDez0rzqjmEuTTChmSlYXpQegGI5bfffHlyiG47YrEe0DFpuaFJMBwJxN5yG388azpMhuujy80NGrtgnyX6+/3nH2k/xYQgBYJL1bKXMla0evIpPNIc8o35SsIr+MHGnTk68qZ2ZEvPq6vQamgyvbs5OzB+ZEtNwiwvXjkkwo5t3FtdV+fvpw9e0f2BOU+AqtMmbTuTWXW44Ib/Gntzfena2fWxrca/I/gVhfd3iOQqvMPDuSCcWko8EjLpBevxkqACbvLkn76fL3DUIGB/Xbt25/IKe+ASQl0ji5CJ4QAAAAAElFTkSuQmCC;" parent="1" vertex="1">
          <mxGeometry y="150" width="34" height="30" as="geometry" />
        </mxCell>
        <mxCell id="gg7sQDAv7kerzeQKTBUp-22" value="" style="shape=image;verticalLabelPosition=bottom;labelBackgroundColor=default;verticalAlign=top;aspect=fixed;imageAspect=0;image=data:image/png,iVBORw0KGgoAAAANSUhEUgAAACIAAAAeCAYAAABJ/8wUAAAAAXNSR0IArs4c6QAAAaNJREFUWIXtVj1PAkEQfac0lnqVFAYqbUyUk2CDNRSU9wusbPgHBvwL9P4CG5MroJbEQBDUmBipjlBAYQ5KG8jZ3OLufTkjUmh4zV72Znbfzr6ZHWCNNdb4o9C4DkYm73Lsu70maY8El0ShWCbbO282ALgUMmQigsTu/g4AYNyffOujH6SRRYlEZoNKZFkYmbwbd60kIvKVjPsTUjRkZNOlxRhFhhURcS2rAIsINxJ+dGzrd4gsi26vqc2m81DRstIXABr1Gste6EPg2b4PtWMRadRruNnTAQB6LqX8c9oD6LkUnPZAmTdtK0AmDKSqJ5QuSJhDh+IWsI+rJWyNmEMHD907AFDGsDkqYRIRI5N3KaGlIK6gxWpEFDLvzcDrexLA1ylPjDNl9H/LPtJh3Nl0rvlFGxmRuAfOvxnHplAsI7G9GYgMKWs6nvIrtoWrrUOKywKVjxdljShEqpjbd3DhzyBy+t5eXAbmnx5HkT5Hx0nFptq6hlxV/RohFzR5QRJaQPX0XPGJqqoAo1WU07hjW6QWkONDjoi3yE/61ZVq7f/iE+X2uIewZ0wPAAAAAElFTkSuQmCC;" parent="1" vertex="1">
          <mxGeometry x="34" y="150" width="34" height="30" as="geometry" />
        </mxCell>
        <mxCell id="gg7sQDAv7kerzeQKTBUp-23" value="" style="shape=image;verticalLabelPosition=bottom;labelBackgroundColor=default;verticalAlign=top;aspect=fixed;imageAspect=0;image=data:image/png,iVBORw0KGgoAAAANSUhEUgAAACIAAAAeCAYAAABJ/8wUAAAAAXNSR0IArs4c6QAAAalJREFUWIXtVrtOAkEUPSgNpVJpYaCy2pjsajAmaw2FiQ1fYGXDHxgg/gGNlV9gY0IBNSZGAvgIiZFqCYVbmF1KGsjaMDizzMBcUKs9zW5m5t45c+5jBogQIUKE9RCjGlimHVBtOs8PS/eJU0lkcwUSCe/DAYCAJ3OQPsGb8yis01aEkdjZ3wYAuD2fRKblVBcqs6Ht7RdgmXagCq0WET4kbs8nqcFwlD6bfWVkSIqwsPwFSMnq9nzUaxXyJkwNAGg51fWJ1GsV3O0lAQDJTGpu3mv2kcyk4DX7wnjeqc7IjIeTWLhiAM2qYTFlJPIDT5t82EZVOeSqyQ88tDsNAEC70xD+ZWO6pP+1fBeBlCPvX7sAfk54aJ3O/fNjKjsZlipimXbAZ71qMxlk61QNbaEirJFN74u1wR0oCFePUpFVLjhdZHMFxLc2BWW0kpU1oeKoi3LCIFVNOWGgOOoKfmRQ9pFwLO8vrwAA5zfXKCcMHf4z8qXjCwBA6elWmON7ijJH+EWWaQevL5+Cc12ESYyHE+nhSe8RlmzL3har2Gn3kamDVZ+JZLsI3+igy9hcQRctAAAAAElFTkSuQmCC;" parent="1" vertex="1">
          <mxGeometry x="68" y="150" width="34" height="30" as="geometry" />
        </mxCell>
        <mxCell id="gg7sQDAv7kerzeQKTBUp-26" value="" style="shape=image;verticalLabelPosition=bottom;labelBackgroundColor=default;verticalAlign=top;aspect=fixed;imageAspect=0;image=data:image/png,iVBORw0KGgoAAAANSUhEUgAAACIAAAAeCAYAAABJ/8wUAAAAAXNSR0IArs4c6QAAAi1JREFUWIXtlz9P20AYxn9GXRjbTGWo8FQWRGsTISGZrVIyROqSpd+gS/YOFaB+gyyd+ARdKnVI5kRCQY0DCKkikxEDDJXJyAJyBzjr7JzPZ8dUHfosd7p73/Pj5/1ztoUGruNFun0Z/mRomdqq8ExHotHsGB0SngcAkSCzYW8DcBocLkZEkHj5+gUA19Mb7SG1NZs6LYCkggHGKmUqsgjqdktMI9OQLaUX5JBcT29y1VAR+Bn8AKDR7Bjn2RwRARGWvwULwHU8SMfXAHIyPyZsrIYMk/CIHIm+vaoBUNtaTRiERxfUtlYJjy7mnNu9LnW7RW3Nntu7m90XKmfLdbyYRPsyNHaUfRrNTkKRu9m9dRocsmFvI486xDnSvgwZ+wMAxv4gMVetyaQFCQHx0PSYS+TX75VcQxXK+mUSeSqIDmuCJ2locu9wn3vxuq56KieSdT/1e12t35I/GVq7t2fsL6+z6e4w9gdsujsA8TxrTfiJ3qEqY1NUmiPheaB8836vm9vU4k3X8aL95fXCD9+9PZMvOWC+u4q+YkREkClKJE0iTcj09k0ka9rJ5OMo3czKIrdq+r1uXAmq+OsUqYSI63jR94+fAXj/9QvwUDGz6aeE3bsP87dtGWTGTyYicHJ8pbR983ZFabc3OiiXIyqcHF+xNzrQG40ehjTxItCydR0vkj///MnQ0l3psoriBSpR5PGQQiUth6UIFvopUkGloolf5ZdeGRX/45/GH/vfDhISn++xAAAAAElFTkSuQmCC;" parent="1" vertex="1">
          <mxGeometry y="180" width="34" height="30" as="geometry" />
        </mxCell>
        <mxCell id="gg7sQDAv7kerzeQKTBUp-27" value="" style="shape=image;verticalLabelPosition=bottom;labelBackgroundColor=default;verticalAlign=top;aspect=fixed;imageAspect=0;image=data:image/png,iVBORw0KGgoAAAANSUhEUgAAACIAAAAeCAYAAABJ/8wUAAAAAXNSR0IArs4c6QAAAiFJREFUWIXtlz9P20Achh+qLoytpzIgPJUFQX1ESEhmqwRDpC5Z+AYs7AxVqfoNsnTiE3SplCGZg4SCEvNHlVAzGTHAgAxjl1buAGed8fnu7IDEwLvYsn93efL+/tiewkEiCFOXOIDoaH/KNVbVaxeI9Y1tp82S3zFAKmEW/VUATuODyUAkxLv3bwG4Gt8YN/PmfRo0AfIOxlhdsjoyiRp+U56mtpS9KruhpuRqfGN1QwcwjDsArG9sW+usFERKpuWpZU1NFSd0GsYdiGuAiCCE+2LrddvOP1jWWX9v/zm1s86R9MesB4C3Mpe7kRye463MkRyeFxa1um21ODOI0/gga2OTcrQiCDOI1kViXSylrlELtcpw0xZr6yJhFPUBGEX93LnuWhVoZ5Cz65laG5nWuaTG2jXLYq1wrl7TSc4PdXaINyFQ/iyygsgULIs1RlE/O5qAyjrI1IUFOhGE6dfpBRtfQV/+/KLhN/Hm/dKYXrdd6oj2YpXHvpTausO4U3DFBKEFEUFIdLSfDbaHs8FVsk6k5ExxBtGA1YaRQC7zxOk1wJR3yF6IJpITSK/bznKuq/xJHHMCEUGY/tz6DMCn79+Au3a+He/k4j5udgprq8qYOxVE6uT4Uhu79GFGG7c72Hu8Gjk5vmR3sGcOGtwdHoK7qlLXyA5Y9FdL38xVF+UfeBRH7jepNODUtLiq1seQTToXbWue5HOijosverb6D3kD96RRXydcAAAAAElFTkSuQmCC;" parent="1" vertex="1">
          <mxGeometry x="34" y="180" width="34" height="30" as="geometry" />
        </mxCell>
        <mxCell id="gg7sQDAv7kerzeQKTBUp-28" value="" style="shape=image;verticalLabelPosition=bottom;labelBackgroundColor=default;verticalAlign=top;aspect=fixed;imageAspect=0;image=data:image/png,iVBORw0KGgoAAAANSUhEUgAAACIAAAAeCAYAAABJ/8wUAAAAAXNSR0IArs4c6QAAAfJJREFUWIXtVr9PwkAYfRgXVzvJYOgki0FBgiHBzUQHE5curk7ExN2BgDH+AyxODs4uJJjADJFA+B0SIlMJAw6kMrJA6mCuKce1fAeTCW+5tvfdd6/vvh8HbLCBOzyyC0LBmEm1rTeKZP/bsiQuLu9JtsaXDgAmIxNQowCAtl4S2pMZy5Cwk6nqWeEcr5aUIgCwd7ALAPju/UitC6tXAADFryKfSy/Mb1GcrKIGT8BJGQZpRWSV4JHPpYVBTFKEgR3LqqjqWcdMkiKyrhrT8cwTUKNWBtlBPhpRgDlBFE/T8czT1ktCElJE3vcVAIAS8VnfjEofSsQHo9Kfs9Vy6QUyrH6sXEdCwZjJSGgDg0xYGxhzGbOsypJipDvyQhsYqNULAOA6agMD3ZGX4laeyDpg9WNZj3KNEfvix51D6/tJ6Ew48nbAQuCaLGh5OJ4bq6asX/AbuCE56SCsXkHxqwtz+VwaIjLkrElOOmQiLEjZT1Dag6si9ne7M1FNYZvzEPUYUQaRrgE8qVq9gHHvYc7m/OZTuDZ1eotU+XVp+pKPJhNPWM8fd28A/NyGfhwdz6dtqzmkupfvvtcvT86T5b8hE09YJChqSBNpNYeW1E5pGArGzOd8CwCtokoT4Z07NS9mA8hdnlcJVk+9UaT63+D/4xf+oejrni6+QAAAAABJRU5ErkJggg==;" parent="1" vertex="1">
          <mxGeometry x="68" y="180" width="34" height="30" as="geometry" />
        </mxCell>
        <mxCell id="gg7sQDAv7kerzeQKTBUp-29" value="" style="shape=image;verticalLabelPosition=bottom;labelBackgroundColor=default;verticalAlign=top;aspect=fixed;imageAspect=0;image=data:image/png,iVBORw0KGgoAAAANSUhEUgAAACIAAAAeCAYAAABJ/8wUAAAAAXNSR0IArs4c6QAAAeZJREFUWIXtVjFPwkAU/jAurHaSwdBJFqKWEIyB0QQGRhZXJ0PC7mCkf4GdX+BiQgjMGAmkoBITAtMRBh1IZXSB1EGuXmmvvVbGfkvb1/fuvr7vvdcDQoQIEeJ/iPhxTik5w+8Gw5cnoT32/ZDIFyq+SOgTAgAGJXMiXwAARqQbjAglcXh8AAD4nH4JEZESMtIoAoCZSV6G9oRW3BHScpErr6d+QSRhsZEHGmmYZDTSsGVGOCNUll0gX6jYMiNMRLQugkKoWNutmu+FeXJqpAGQgEQejiQAgJSJW+x6fwYpE4fen9liSq2ajcxquebWpGuxppScQUmU5roIZwB/xEtzHWm5CACWAnWaJ0I1UprrGAw7AIDBsGO5d7J5kR6Rrm2oeUozXsSgRmPmczNbBgCo0SSa2bJ5ZaFGkxgvAOCXEG3dlJIzeAONKw3bXmo0adrvv9+5pLf9qCxSQjbt7VbNcbo6EqFDTJ8Q82so6OJOYH2dSLBkVst1hJVHqGvY6ndrZSeS9GO8pjM3I7wAWpTL6a3t3eXVs+tmLLblEfrXPN7cWWxvrx9c/9OzmOWZ+lZ7dUv7+u6a7Y2rvbq7c2/jd37NjXE6jwidnlJKzmD110jDVmwiMW6nNaGMbBbwdUwMEhOCxQ/MpuKsDoSVYQAAAABJRU5ErkJggg==;" parent="1" vertex="1">
          <mxGeometry x="102" y="180" width="34" height="30" as="geometry" />
        </mxCell>
        <mxCell id="gg7sQDAv7kerzeQKTBUp-30" value="" style="shape=image;verticalLabelPosition=bottom;labelBackgroundColor=default;verticalAlign=top;aspect=fixed;imageAspect=0;image=data:image/png,iVBORw0KGgoAAAANSUhEUgAAACIAAAAeCAYAAABJ/8wUAAAAAXNSR0IArs4c6QAAAepJREFUWIXtlj1PwkAYx/8YF1Y76WDoJAtR2xCMsaMJDiQuXVydjAm7gxHjN2Bx4hO4mBADM0aC4UWJiZHpCIMMpjC6aM7pzhav7VPAjf/S6/Xp3e+etxZYaKGFoikW9QXTsDjVtt25J6+/HBUie5An2TpvDAC4gNnUdwEAXVafDURArG6sAACGvVGgvZbUkUYOALweZOooRPLILErrOTHkqpAtURZxh2TYG4V6QwXQZGUAQPYgr8wzEoiQCMt/KFJoonhCpSYrA2xGkGqlSN7Qr7K+xt++5UwGuVnXAABaJiHnnMc+tEwCzmPfY2tXin9gvsbfsS6ryzKeVGjDMQ2LCwh74JCB7YHjSdSw5kZOVnvgoNWuAUDglQI7Ncjrx1qkRaPak0EA4DKekuO7vVNcxlOeq8oO+O0fYd+owLiZhsXTeg5NVvZscPH5Egh68fki80NL6nK+WinKpCWDiG7qvDF5KiFXu5Zy26ggwmDI5esuR1VPUcGJQ1C+2IEe8XvWatcw7p155vaPHkI3E1J5hPTjYhoWvz05l/fPT+9Ku61tb7UIu0Kj9KerTh0aocPrK/+Hjd+hG1y18aTIIPJ0O8coNEqBndI0LO72BkUkkHbnPlYAuCohw+xF+c8FRCyOyd++OdovNKkfmTbkoajbAmoAAAAASUVORK5CYII=;" parent="1" vertex="1">
          <mxGeometry x="136" y="180" width="34" height="30" as="geometry" />
        </mxCell>
        <mxCell id="gg7sQDAv7kerzeQKTBUp-31" value="" style="shape=image;verticalLabelPosition=bottom;labelBackgroundColor=default;verticalAlign=top;aspect=fixed;imageAspect=0;image=data:image/png,iVBORw0KGgoAAAANSUhEUgAAACIAAAAeCAYAAABJ/8wUAAAAAXNSR0IArs4c6QAAAJRJREFUWIXtlkEOwCAIBKHp/79MTz1oRFkjGw/MXZiuaBUpijmKLjAzCxdXDdeHRBAJVCYssiMxbOiIPSeKI3gfFErkVBpN4y4ZeiIe14i8zGazE0RLZHWMlyIZg7olwsKdEVYSP9ckcr8I8udMFRHhyiy3hiVT90gP5RkQ2d6tF9qs8Ej6qAhCLxMRSZkR9h1UpPIBl6owNPu1j3cAAAAASUVORK5CYII=;" parent="1" vertex="1">
          <mxGeometry y="210" width="34" height="30" as="geometry" />
        </mxCell>
        <mxCell id="gg7sQDAv7kerzeQKTBUp-32" value="" style="shape=image;verticalLabelPosition=bottom;labelBackgroundColor=default;verticalAlign=top;aspect=fixed;imageAspect=0;image=data:image/png,iVBORw0KGgoAAAANSUhEUgAAACIAAAAeCAYAAABJ/8wUAAAAAXNSR0IArs4c6QAAAfxJREFUWIXtl79OwlAUxj+MC6udZDB0koWg1IaEBDcTGJq4sPgGLOwOBIlvwOLkE7iQMMAMCZHwR4mJkamEQQZTGF0gdeGWS9tL7y01cfBbCuRw++Oc75xTgH/9UYX8fElJZkyvmMGwLXT2oR+IbK64M8b40AHAJDAJOQ0AGOmdYEAIxPHpEQBgNp67xkkxGSo0ANjOnM6ugHBG/EiVNfLSZJXsgPcwuiSz8ZyZDTeAnl4HAGRzRaa/uEGISFmClnBpeDLhpp5eB/SAQJqNqmcMq6OWi9XOdhYCeTqRAABSKgoAMLoTSKkojO7Eisk3qg6Y5WIVGukdq43dxDV0lGTGJBD5qeEJmp8aW0blGW5CZs1PDfQHLQBwve6CDBTkN7XTI3TPv39FAGx+8YVyuXUlIlkhs4NWQk4zx7ynWbO5otUtlXDccWM7mN2odKftvWtUWUNZr6MSjqMSjjPjyt9vPMeJg6zdbpIO8LqRKmtourTv3iA0DLCd9vWqDwyGqzSDYTtkX1ZSTHbEEThV1pige4EQEePRBiaiVr0vcYEoyYxZK5Ss99cP9+gPWliMb63Prm6c7Soi7hFPQF5fPplxZ+cRR8zd8yPXiOd+wFWSGdP+oOOmWqFkgfBCAAIeobsH2GxUOywNISJffycA9ri2Zy7wjPDKnrl/+dUPHFvjbIcizKUAAAAASUVORK5CYII=;" parent="1" vertex="1">
          <mxGeometry x="34" y="210" width="34" height="30" as="geometry" />
        </mxCell>
        <mxCell id="gg7sQDAv7kerzeQKTBUp-33" value="" style="shape=image;verticalLabelPosition=bottom;labelBackgroundColor=default;verticalAlign=top;aspect=fixed;imageAspect=0;image=data:image/png,iVBORw0KGgoAAAANSUhEUgAAACIAAAAeCAYAAABJ/8wUAAAAAXNSR0IArs4c6QAAAeJJREFUWIXtlj9Lw0AYxp+KS1cz2UGaSRdRE0JByCi0Q8Ali9+gS3eHUovfIIuTn8ClkCGdWyiWNtUiiJ2uZLCDpB1dWuKgF5r/l2oHIc90OXJ3v7zv8745IFOmf6JcmpdFQXbSHmCOukxn7KaBKFdqqSDsNwIADoU54c8BAGPS2wyEQuwf7gEAZpM5Ewh3xEOCAgDeSJJgJpgj8heSeIUOHX/KdpIWr6dkNpkzRyMMYEB0AEC5Ugv4LRGEiqZlW2JOzSaRCNOA6ADZEKRtaKkPjKqw5WIVWs5MIA8HHACAKxU983Z/Cq5UhN2fBtaohhaAWS5WuTHpuWW8rthmIwqyQyFUy2Zh9oCrlu0xalxzCzWrKMgOdfXrRwGqZWNodgAAQ7PjGYfNqZbtgg+I7lYLFXNEaMm2DQ3N/DEAoPH5EvUxofKnpW1osRGJ9YjEK2gQHc38sQvEorTQkSA/5A7Nb9qNJV5BO8SscYpsaOaom/PnNmljiVdcc1IYViWWb6tad8eXd7euKReT68C7F1d6YI4VJrF8Kcjz0zvThgBwelYIrLl5vI81a+KlRRRkx//TYlGrWndBkiAAhtRQ49Jn2h3jJAqysw7BolRXReC7GSWBUBjWrgps8WLkj2SmTL/VFy2N27rHc+TcAAAAAElFTkSuQmCC;" parent="1" vertex="1">
          <mxGeometry x="68" y="210" width="34" height="30" as="geometry" />
        </mxCell>
        <mxCell id="gg7sQDAv7kerzeQKTBUp-34" value="" style="shape=image;verticalLabelPosition=bottom;labelBackgroundColor=default;verticalAlign=top;aspect=fixed;imageAspect=0;image=data:image/png,iVBORw0KGgoAAAANSUhEUgAAACIAAAAeCAYAAABJ/8wUAAAAAXNSR0IArs4c6QAAAeZJREFUWIXtlr9OwlAUxj+MC6udZDB00oWg1IaEBDcTGJq4dPENWNgdCBLfgMXJJ3AhYYAZEyIBVGJiZCphkMEURhdIXbjl9g/tacHBhG9poae9v5zznXMvsNNO3oqEeUlKZQ1qbP/libTGfhiIXL5IitU/NQAwGExSzAAABlp7MxAGcXh8AACYDKee8cKJCBkKAFgzqDkrETgjm0gWFXZr2Eu2R/0IX5LJcOqbDTeArlYHAOTyRYfPyCBMrCzbVuDSBMmEm7paHdA2BGk2quTYdZ01ny1c2zkQyOORAAAQ0nHzP70zgpCOQ++MLLFqo+qAmc8WkYHWNtuYF2nYSKmswSDUsU4GVse6xahewy2QWdWxjl6/BQCeVwqsXZ6l4Vvs4zsGYLXAuXTheuWhgVXL8kqKGcd09fVILl80TVqJJhwL2sWe2/3BGz30iJdFBWWtjko0gUo04Rtf/nmnfJYOsjSXwQxHXUAWFTRduiY0CA8DWNO93Fm3BkM+j/DG5X1jX3yd/NqX5BEplTVqhZL5++r+Dr1+C7PhjSXu8trZIVSRBxoDeXv98o0/PYs5Ym+fHzwzEqg09u3cS7VCyQTxgwAC7DW8aYHVvrEOmoegKNThGXCfjnYY6j4D/OFR0Z7Bnf6tfgFLHeB4UWXb0gAAAABJRU5ErkJggg==;" parent="1" vertex="1">
          <mxGeometry x="102" y="210" width="34" height="30" as="geometry" />
        </mxCell>
        <mxCell id="5f66h4rjrd1g6RxAKGI0-1" value="" style="shape=image;verticalLabelPosition=bottom;labelBackgroundColor=default;verticalAlign=top;aspect=fixed;imageAspect=0;image=data:image/png,iVBORw0KGgoAAAANSUhEUgAAACIAAAAeCAYAAABJ/8wUAAAAAXNSR0IArs4c6QAAAIhJREFUWIXtlUEOwCAIBKXp/79MT/VgCirIhqTM1QTGbZHWiqSQtwAzcy9GZK53nZLwot7gq9F7a03Cksy2iJWZHEykNxSEphGiZJa+JUJmaWo8Y7mKa3xPUiIjJTKSRuTWDiPeD4k0iaQR+e+ukdZFml0T1kBK0ZWIhd0UoVOjycFEEP9ZEcIDgfEwNtTwBBwAAAAASUVORK5CYII=;" vertex="1" parent="1">
          <mxGeometry y="240" width="34" height="30" as="geometry" />
        </mxCell>
        <mxCell id="5f66h4rjrd1g6RxAKGI0-2" value="" style="shape=image;verticalLabelPosition=bottom;labelBackgroundColor=default;verticalAlign=top;aspect=fixed;imageAspect=0;image=data:image/png,iVBORw0KGgoAAAANSUhEUgAAACIAAAAeCAYAAABJ/8wUAAAAAXNSR0IArs4c6QAAAeJJREFUWIXtlz1PwlAUht8KCyM2SnQwdNKYEJRKMCR1M4GQJi4srkwu7A5GiL/B+CNcTPgHRUkMlI+4yFTDgFPt6AKpi7eh5eNebktw8F1o7m3vefKek3sOwL9WIDml2HJKsf2csREERC5f9nsMBJZAs77T23XIKcVOSyqaRs3Z0Nt16pncIGlJRSG2jaPjXQDAxcOd651qJIHDrSEAoDgwXXusYNypIemoRhIugMc90dnP5cvM9UMF0dt1gVjvdYKo8HyPlq653NjZ35wCWhQnTAMhMBVg7kEn8pnzLGbiwMDEZ//LDYQyANjzUkUFSUpZAMDIGgvhaMjudoZo6ZorOICZa8uICtIzGs6zHFWWDkCcoYmrWK3+9dSaHze4QWappWsAAPP1Y70gxBExE18vyFocOb98QVpSuQIGBkKuea/+RLG2dM1JDa+o9whLnyBukD7DIyZHSD08Xd1Mrd9+v2FyHikOTPDMJ8ypqZyWptaaRo0Zwnw3Fp5PTc1vk7ILsRK6naFrzxs0LalzAzaN2sLZZKnuO8sVmsgIQRuQlhrr/AzIgYKwKCllEY6GHGAy046ssTDZyb0K7Ion6hkNjKyxQCBYFRgIGaDILwCIB5JTpIvcAFaUGgBOenj/XvzrBwYMvS6AKtPHAAAAAElFTkSuQmCC;" vertex="1" parent="1">
          <mxGeometry x="34" y="240" width="34" height="30" as="geometry" />
        </mxCell>
        <mxCell id="5f66h4rjrd1g6RxAKGI0-3" value="" style="shape=image;verticalLabelPosition=bottom;labelBackgroundColor=default;verticalAlign=top;aspect=fixed;imageAspect=0;image=data:image/png,iVBORw0KGgoAAAANSUhEUgAAACIAAAAeCAYAAABJ/8wUAAAAAXNSR0IArs4c6QAAAhJJREFUWIXtlj9v00AYhx/TLIzBgooOEZ5aIaG0dSNQpHRDSlRFYunStRNLdgaUIr4BCx8iC1IGmBNRgRKnrbrQyVWGMKUZu7QyAz5zsc8X/wlbHinSnc+5+937vvc7w4oVeoy8E9i7NU+0nVE/83wP8oqoN1rUG6080wCaiMg7Df/HGfWxd2texWoCMHC7kZfSRkcrpGI1OVh/wvbORvD8zeePkXc/PHwBwPPHk+DZ4XiaSlwhoeA5RCq+ff0UiGjfXsL473inZNIpmRyOp+G0eXGCYmvEGfUNEXJVFGTat5cMnV7wC0fj6eajYAP1RkuZdm1EnFHfOPF3sYg9e3+ub758Br6g31c384JoAXhyZGKFlK0qAHeze6NQXPMAzs8mDJ0ee/Y+olBlhk5PKSoJsUIu3NOgbRdrQXt29S52MlnA9Od1ZFxERkUuHwkjagT81KQg06mJY1FElirk9dF3bX2EBeUWojpi2zsb8ONfv2I1aftHXF68UzJTC9HWiNj5l7fvleMDt4t81wgjA1RmpmVhak5eHWtFyMhGphMx/eUmF+KbjXewfsz52SQyrlpIrh3VYoKB243YfCJnjYtKWsSVobprEl3Vmk+CTGQWkoWyVUVcDYKK1WTgdrmb3Ruyc8OSDU3mwj2lTNUoFNc8le+EWZrFi0tS1Te3LMwtKyjScDTgP6cGmEtPno/rFSv+ANXizE7MA3A+AAAAAElFTkSuQmCC;" vertex="1" parent="1">
          <mxGeometry x="68" y="240" width="34" height="30" as="geometry" />
        </mxCell>
        <mxCell id="5f66h4rjrd1g6RxAKGI0-4" value="" style="shape=image;verticalLabelPosition=bottom;labelBackgroundColor=default;verticalAlign=top;aspect=fixed;imageAspect=0;image=data:image/png,iVBORw0KGgoAAAANSUhEUgAAACIAAAAeCAYAAABJ/8wUAAAAAXNSR0IArs4c6QAAAhdJREFUWIXtl79v00AYhh/TLIzBggqGqDdRISFDQ1RkKWxIiapILF1YO7FkZ0Ap4j/owh+RBSlDOyeiEkqctupCJ6MMYQoZu7QyAznLP84+xw6Uoc90ks/n997v/H423PKfYhRdoLpV9+TYGQ9yr3enqIhGs02j2S6yDKBxJLjb4D3OeEB1q+7VRAuAodsLTcjjjFZITbTYWX/As+ePAHjz+VNs3se7TwF4cn8KwO5kFpujE1fKKDiELMXR4YEvonN5DhPoVky6FZPdySxaMi9NUOoZccYDQ9quckLSuTxn5PQZOf2YGw8f3/PFN5rtpHLrHXHGA2N/sZs0XlRf+WNzewMWgn5e/AoLog3gRZ1JdcQSNpawuZpfGwCnJ1NGTp+jwwNm393Y/JHT1+lNJNWRM/fYH1fLdQDmF+8T5wddiSKdSaJQjkSRjsy+/Vj63pUKkY6Y2xs3K+SfOvL67VdkokZJOyMrFSLTVYXMkbykvjVJ4SOpiRadReBJN7oVM5cQrSOyDF/efYhdG7o9gt1XilDEu5ZMvWb/5V6iiCAy3tNEqIJQK2QRw97O+h6nJ9PQNdXDpHtJD4M/G1A1vsy9RuXKMsjmmdR9M3/A6A5uVgoLWQZL2JTKayHhNdFi6Pa4ml8bwR4myfVhpOPMPcbCNkrlNS8p/KKsLOItYSvH5qbA3BT+IVW5AX+xNECoPEV+NW65UX4DAOzM04Dz9z4AAAAASUVORK5CYII=;" vertex="1" parent="1">
          <mxGeometry x="102" y="240" width="34" height="30" as="geometry" />
        </mxCell>
        <mxCell id="5f66h4rjrd1g6RxAKGI0-5" value="" style="shape=image;verticalLabelPosition=bottom;labelBackgroundColor=default;verticalAlign=top;aspect=fixed;imageAspect=0;image=data:image/png,iVBORw0KGgoAAAANSUhEUgAAACIAAAAeCAYAAABJ/8wUAAAAAXNSR0IArs4c6QAAAbpJREFUWIXtlj1PwkAYx/8oC6M2amQgMpmYEIFiNCawmWCMCQuLq5MLu4MBwjdgYfITsJgwwIzRYEp9CYtMNR1gKowsmjroHS3tXV/Erb+Je+56zy9P754CBAQEBAQE/C8hvw+K6azOm5ef7z3t7biYlTB/WqK/O+06qpEE9jZGNFZUNU9yYSeJytElkqkojRUaNdMaIlGeDQD1J9aMCWjGBBRVzSQMQGcJMUXEdFY/iJ8zJTvtOgBQib7cpXMZMYdmTKDj7d11jIcTo5S+KMOtCKHQqOHu6oaOyYZEhiQ3IhzuAL+vZzycUCEAyKNkkeGKSEoLkjIfv76M0Je7yIg52FWLVGVRyg1MEaOt8cBOh9fMzZwESGXsWOE+6ZG+3KVV0Z4+PD3r6oy4xc8rIXgWObl44J4Pv0KeRJKpKNCzxquRhCm58eq6xfGMiOmsbry6i5RnAypDGhkAu2bGxbGzsuYkpUUTlUk/UefzPAntXbHEmL2fdNazrU1TvNK7ZSayS2CHpLQsbX4pt8aLAGD/reFWxK+YE55E/ordR1NSWvicfoXelEfL+qWL7MePAQDhtVVLRXn/R74BW6qoUp15a0kAAAAASUVORK5CYII=;" vertex="1" parent="1">
          <mxGeometry y="270" width="34" height="30" as="geometry" />
        </mxCell>
        <mxCell id="5f66h4rjrd1g6RxAKGI0-6" value="" style="shape=image;verticalLabelPosition=bottom;labelBackgroundColor=default;verticalAlign=top;aspect=fixed;imageAspect=0;image=data:image/png,iVBORw0KGgoAAAANSUhEUgAAACIAAAAeCAYAAABJ/8wUAAAAAXNSR0IArs4c6QAAAelJREFUWIXtlrFu2lAUhj/aLBkLaqNkQGVCqhS1xaBWlWCrZAshdcnSNVMX7x0qgvoGLHkIlkoMZAY1UgUmVCxlcsUAE2RkaUUHuMYYLr62oyYD32Qf+/r8+u/xORf27NkTjFjYhVomPxfXVrcV+juCgyiLdcMUl/OoYkIJ0TJ5ACa/bHcskkO+C9wJZFQOTwF48XQEwNlwsvZcRZiSI7lUieLRM169PgHgw+VXdMPkqlF1RJRnfRhCLZmglkxwNpysbZ2foEg1IijP+nSsJgBZrUAtmQDgOB1nPJgq1dIjvyRWtxVr23Vg4YSMrFYgqxUASLx5DsB4MHUEHafj6IYp3WolR6xuK3axtLd3M6JjNZ2kbmRxFXwdcYsJlYGFM8KdyELc3A4+b42HdSO0EBmiYCc/ft+vEG+x3puQB+NIFEIJef/xO7lUaSP+X4tVtHkvHavpbE0YfBuarBOKblue9YGVG6K9B0XJEbEN3z59WYvrhunMkcrhqSPCM/CUUB56F2/Ppc90w6TcqMJwdb8N9/klsJBla58Xj87p3Yx2ihGJZAnbdl06KgINPbcruVSJq0Z169+zTYD4juydQINM5bS2izsTooKWyc+9LrXtOn9u/8Z+2tfSdXcq5GXqHQdPHm+4pnKE+AeOkLjfMD7cHgAAAABJRU5ErkJggg==;" vertex="1" parent="1">
          <mxGeometry x="34" y="270" width="34" height="30" as="geometry" />
        </mxCell>
        <mxCell id="5f66h4rjrd1g6RxAKGI0-7" value="" style="shape=image;verticalLabelPosition=bottom;labelBackgroundColor=default;verticalAlign=top;aspect=fixed;imageAspect=0;image=data:image/png,iVBORw0KGgoAAAANSUhEUgAAACIAAAAeCAYAAABJ/8wUAAAAAXNSR0IArs4c6QAAAdVJREFUWIXtlr9LAmEYxz9WS2NJRQ2SUxFEP84ogtyCRASXltamFveGqOg/aGnqL3AJHGpWikLPipacLhx00saWwgZ5rvN670enFITfyXvuee/53Pden+eFvvrqq69/olCQRdryRst6rZcLgZ5j1VDQhVuJjPWyazDPBfa3V+l4eB6AubEaANvVxrccLzhXR7TljdZKNEVyYpzFpSkA0mcnrERTZk7RyAFw+PYEVchGwmQjYbarDaVrTkCBPk14NgpA49kwYyU9D0BMi5ONhM345Mwo9UrTCtVSwQx4FZU3Tp+duObFtDgxLd4GXZ024/VK0wSanBllK5FRfm5XEL1cCOnlQujo9hyAh/saJT3P1eWpMl9cCSJPRwRIfr9W9h3zxBGV6pWm6U5gEL8SRxp3Lz9e21MQ1R75E5BfdWRz57qjj1jltkd6CiJNTaWSnu/qXxN41libGXy5YW1mPQWR5nOxd9ARl0YnOh6e75g1tvbeHYjMGntRkRQ7lAZX7YyrZHfSF4joaG2Xh/ua430pLEWcikHbSdWs8QQpGjmSE7uO992K2p8DztPX1wHGz5nEr7oC+alkb1lVNHK8v36EHo0b5ZqegixE1wEYGhn85qDXCe0T1hSwVqg3u0cAAAAASUVORK5CYII=;" vertex="1" parent="1">
          <mxGeometry x="68" y="270" width="34" height="30" as="geometry" />
        </mxCell>
        <mxCell id="5f66h4rjrd1g6RxAKGI0-8" value="" style="shape=image;verticalLabelPosition=bottom;labelBackgroundColor=default;verticalAlign=top;aspect=fixed;imageAspect=0;image=data:image/png,iVBORw0KGgoAAAANSUhEUgAAACIAAAAeCAYAAABJ/8wUAAAAAXNSR0IArs4c6QAAAcdJREFUWIXtlj1PwlAUht8qC6M0anAgdsKYEJVCNCZlM4EYEhcWVycXdgcDxH/A4uQvYDHpADONRlNaNS50uoYBpsLoAqmLrW28/YAUpj5JE3p62/P00J5TICIiIiIiXJh5T+CzAhRVAp8VDLdrKqq0HBFa0mKpav3utJtoxDPY3xyiMtCp11BUyTNXLIhE/eQKh0c7AICL+zvHcVOi9v2JFli0UiwqA90h+ovhJeQpwmcFI8+Vqcc67aZjv6d0keMLaKVYRzyZTmCkje1iBk1mzUvEjr0Sea5sbSY5vgAAYI93HeeNtLEllEwnUCxVqX+1r4hMRNRfHgAA729D9JQuZCKC3eMc63pKN+g9UfEUUVSJmU5mjL2UE+2GutasiBsjbWxVZ24RAPggz35LAPxVRH/9CrR+bpGguD0jKxdZeUXOLp9Ae6X9npFQRcymRmOpb8080JpZ6CJ8VjAer28dMb1PIBPR2m/EMwDg1t59CTRraHGZiFbCmtnuB/CV0PuEGveciOasOd/esmJml6UldEtiRyYidfD5ViQIQQUA9+nrW5FFxLxYSGRRaJ8PMhExncwYt5ERqsgBdwoAiG2s/6uk3xfaDxSjrf+DinWAAAAAAElFTkSuQmCC;" vertex="1" parent="1">
          <mxGeometry x="102" y="270" width="34" height="30" as="geometry" />
        </mxCell>
      </root>
    </mxGraphModel>
  </diagram>
</mxfile>
